<svg version="1.1" id="Layer_1" xmlns="http://www.w3.org/2000/svg" xmlns:xlink="http://www.w3.org/1999/xlink" x="0px" y="0px"
	 width="100%" viewBox="0 0 881 860" enable-background="new 0 0 881 860" xml:space="preserve">
<rect fill="#FEFEFE" x="0" y="0" width="881" height="860"/>
<g transform="translate(440.5,430) scale(0.85) translate(-440.5,-430)">
<path fill="#000000" opacity="1.000000" stroke="none" 
	d="
M397.143982,543.852783 
	C380.632111,528.103394 364.363617,512.612000 348.112488,497.102417 
	C332.581970,482.280548 317.052979,467.456940 301.591339,452.563446 
	C300.693329,451.698425 299.924438,450.206726 299.906158,448.994446 
	C299.589630,428.008148 299.935638,407.139954 305.816406,386.660675 
	C311.830963,365.715546 321.282837,346.678436 334.543579,329.432983 
	C351.724121,307.089844 373.394012,290.408508 399.049469,279.105072 
	C416.877686,271.250183 435.625458,266.013092 455.258759,265.913696 
	C536.404297,265.502838 617.551270,265.389801 698.697815,265.183441 
	C699.813477,265.180603 700.929626,265.386139 702.736816,265.561493 
	C693.505432,338.578613 656.574036,392.438873 592.973938,428.798950 
	C678.747070,510.769684 764.372559,592.599243 850.516663,674.924438 
	C800.325012,727.442810 750.138428,779.955872 699.585022,832.852783 
	C691.466736,825.080811 683.594910,817.519714 675.696106,809.986938 
	C634.874756,771.057556 594.021057,732.162109 553.231689,693.199341 
	C533.253113,674.115479 513.432007,654.866760 493.463928,635.771851 
	C461.474060,605.180847 429.421204,574.655762 397.143982,543.852783 
z"/>
<path fill="#000000" opacity="1.000000" stroke="none" 
	d="
M41.509773,538.999634 
	C41.526234,447.845062 41.542446,357.190552 41.570591,266.536041 
	C41.570690,266.224823 41.743595,265.913696 41.964027,265.169708 
	C48.303211,265.169708 54.776978,265.092285 61.248306,265.184937 
	C77.392685,265.416046 93.568817,265.179474 109.670723,266.150330 
	C126.839699,267.185455 143.426712,271.640747 159.225128,278.427124 
	C178.571579,286.737549 195.997635,298.206665 210.865417,313.142303 
	C228.411377,330.768311 241.672287,351.219910 250.116669,374.782104 
	C257.143097,394.387787 259.995850,414.574829 259.996765,435.274780 
	C260.000488,521.763977 259.998322,608.253174 259.998322,694.742371 
	C259.998322,696.545410 259.998352,698.348450 259.998352,700.319092 
	C187.154892,700.319092 114.721382,700.319092 41.509796,700.319092 
	C41.509796,646.646973 41.509796,593.073303 41.509773,538.999634 
z"/>
<path fill="#000000" opacity="1.000000" stroke="none" 
	d="
M652.492859,109.526779 
	C672.579956,132.854324 687.128235,158.864304 695.246826,188.213318 
	C698.191833,198.859680 699.752380,209.891479 701.861206,220.763596 
	C702.131897,222.158951 701.898254,223.652145 701.898254,225.490372 
	C699.718994,225.490372 697.762390,225.490372 695.805847,225.490372 
	C620.009277,225.490372 544.212463,225.381256 468.416229,225.534286 
	C427.721100,225.616455 391.169861,213.498322 359.921356,187.587936 
	C328.306091,161.373459 308.429718,127.636223 302.264343,86.777672 
	C299.898956,71.101921 299.970367,55.058464 298.887360,38.509624 
	C301.908386,38.509624 303.665863,38.509624 305.423370,38.509624 
	C368.725983,38.509624 432.028717,38.440815 495.331207,38.537636 
	C528.734680,38.588726 560.578125,45.720352 590.357849,61.017124 
	C614.000305,73.161446 634.838196,89.055580 652.492859,109.526779 
z"/>
<path fill="#000000" opacity="1.000000" stroke="none" 
	d="
M114.144669,224.158752 
	C107.740196,224.613007 101.788719,225.358749 95.830856,225.413849 
	C78.008347,225.578629 60.183327,225.473083 41.934837,225.473083 
	C41.934837,163.258484 41.934837,101.225601 41.934837,38.850742 
	C114.436501,38.850742 186.995209,38.850742 259.560059,38.850742 
	C268.083191,132.216812 206.484741,212.072678 114.144669,224.158752 
z"/>
<path fill="#010101" opacity="1.000000" stroke="none" 
	d="
M283.630676,339.538391 
	C282.111725,347.025818 280.722809,354.117859 279.369965,361.025635 
	C275.819366,300.733521 226.391922,248.358200 160.868866,245.480026 
	C191.796936,243.361923 218.953979,232.398422 241.423599,210.817810 
	C263.828186,189.299652 276.244141,162.888245 279.385468,131.481735 
	C290.928711,199.130066 330.457062,237.108490 395.739990,245.667786 
	C339.121613,248.832230 295.820129,290.252533 283.630676,339.538391 
z"/>
</g>
</svg>